<svg width="60" height="60" viewBox="0 0 60 60" fill="none" xmlns="http://www.w3.org/2000/svg">
<circle cx="30" cy="30" r="30" fill="#FD6585"/>
<mask id="mask0_1_353" style="mask-type:alpha" maskUnits="userSpaceOnUse" x="18" y="18" width="24" height="24">
<rect x="42" y="42" width="24" height="24" transform="rotate(-180 42 42)" fill="#D9D9D9"/>
</mask>
<g mask="url(#mask0_1_353)">
<path d="M30 22.425C30.1333 22.425 30.2583 22.446 30.375 22.488C30.4916 22.5293 30.6 22.6 30.7 22.7L37.3 29.3C37.5 29.5 37.6 29.7377 37.6 30.013C37.6 30.2877 37.5 30.525 37.3 30.725C37.1 30.925 36.8666 31.025 36.6 31.025C36.3333 31.025 36.1 30.925 35.9 30.725L31 25.825L31 37.025C31 37.3083 30.904 37.5417 30.712 37.725C30.5206 37.9083 30.2833 38 30 38C29.7166 38 29.479 37.9043 29.287 37.713C29.0956 37.521 29 37.2833 29 37L29 25.825L24.1 30.725C23.9 30.925 23.6666 31.025 23.4 31.025C23.1333 31.025 22.9 30.925 22.7 30.725C22.5 30.525 22.4 30.2877 22.4 30.013C22.4 29.7377 22.5 29.5 22.7 29.3L29.3 22.7C29.4 22.6 29.5083 22.5293 29.625 22.488C29.7416 22.446 29.8666 22.425 30 22.425Z" fill="white"/>
</g>
</svg>
