<svg width="52" height="82" viewBox="0 0 52 82" fill="none" xmlns="http://www.w3.org/2000/svg">
<g clip-path="url(#clip0_1_674)">
<path d="M21.5 43C9.64 43 0 33.36 0 21.5C0 9.64 9.64 0 21.5 0C33.36 0 43 9.65 43 21.5C43 33.35 33.36 43 21.5 43ZM21.5 6C12.95 6 6 12.95 6 21.5C6 30.05 12.95 37 21.5 37C30.05 37 37 30.05 37 21.5C37 12.95 30.05 6 21.5 6Z" fill="url(#paint0_linear_1_674)"/>
<path d="M42 81.8399C36.71 81.8399 32.41 77.5399 32.41 72.2499C32.41 66.9599 36.71 62.6599 42 62.6599C47.29 62.6599 51.59 66.9599 51.59 72.2499C51.59 77.5399 47.29 81.8399 42 81.8399ZM42 65.3399C38.19 65.3399 35.09 68.4399 35.09 72.2499C35.09 76.0599 38.19 79.1599 42 79.1599C45.81 79.1599 48.91 76.0599 48.91 72.2499C48.91 68.4399 45.81 65.3399 42 65.3399Z" fill="url(#paint1_linear_1_674)"/>
</g>
<defs>
<linearGradient id="paint0_linear_1_674" x1="0" y1="21.5" x2="43" y2="21.5" gradientUnits="userSpaceOnUse">
<stop stop-color="#E61053"/>
<stop offset="1" stop-color="white" stop-opacity="0"/>
</linearGradient>
<linearGradient id="paint1_linear_1_674" x1="32.41" y1="72.2499" x2="51.59" y2="72.2499" gradientUnits="userSpaceOnUse">
<stop stop-color="#E61053"/>
<stop offset="1" stop-color="white" stop-opacity="0"/>
</linearGradient>
<clipPath id="clip0_1_674">
<rect width="51.59" height="81.84" fill="white"/>
</clipPath>
</defs>
</svg>
