<svg width="64" height="79" viewBox="0 0 64 79" fill="none" xmlns="http://www.w3.org/2000/svg">
<g opacity="0.3" clip-path="url(#clip0_1_37)">
<path d="M61.6101 73.64C60.395 73.64 59.4101 74.625 59.4101 75.84C59.4101 77.0551 60.395 78.04 61.6101 78.04C62.8251 78.04 63.8101 77.0551 63.8101 75.84C63.8101 74.625 62.8251 73.64 61.6101 73.64Z" fill="#BBB9BA"/>
<path d="M61.6101 58.9101C60.395 58.9101 59.4101 59.895 59.4101 61.1101C59.4101 62.3251 60.395 63.3101 61.6101 63.3101C62.8251 63.3101 63.8101 62.3251 63.8101 61.1101C63.8101 59.895 62.8251 58.9101 61.6101 58.9101Z" fill="#BBB9BA"/>
<path d="M59.4101 46.3801C59.4101 47.6001 60.4001 48.5801 61.6101 48.5801C62.8201 48.5801 63.8101 47.5901 63.8101 46.3801C63.8101 45.1701 62.8201 44.1801 61.6101 44.1801C60.4001 44.1801 59.4101 45.1701 59.4101 46.3801Z" fill="#BBB9BA"/>
<path d="M59.4101 31.6601C59.4101 32.8801 60.4001 33.8601 61.6101 33.8601C62.8201 33.8601 63.8101 32.8701 63.8101 31.6601C63.8101 30.4501 62.8201 29.4601 61.6101 29.4601C60.4001 29.4601 59.4101 30.4501 59.4101 31.6601Z" fill="#BBB9BA"/>
<path d="M61.6101 14.7301C60.395 14.7301 59.4101 15.7151 59.4101 16.9301C59.4101 18.1452 60.395 19.1301 61.6101 19.1301C62.8251 19.1301 63.8101 18.1452 63.8101 16.9301C63.8101 15.7151 62.8251 14.7301 61.6101 14.7301Z" fill="#BBB9BA"/>
<path d="M61.6101 0.000145151C60.395 0.000145257 59.4101 0.985124 59.4101 2.20015C59.4101 3.41518 60.395 4.40015 61.6101 4.40015C62.8251 4.40015 63.8101 3.41518 63.8101 2.20015C63.8101 0.985123 62.8251 0.000145045 61.6101 0.000145151Z" fill="#BBB9BA"/>
<path d="M46.2102 73.64C44.9951 73.64 44.0102 74.625 44.0102 75.84C44.0102 77.0551 44.9951 78.04 46.2102 78.04C47.4252 78.04 48.4102 77.0551 48.4102 75.84C48.4102 74.625 47.4252 73.64 46.2102 73.64Z" fill="#BBB9BA"/>
<path d="M46.2102 58.9101C44.9951 58.9101 44.0102 59.895 44.0102 61.1101C44.0102 62.3251 44.9951 63.3101 46.2102 63.3101C47.4252 63.3101 48.4102 62.3251 48.4102 61.1101C48.4102 59.895 47.4252 58.9101 46.2102 58.9101Z" fill="#BBB9BA"/>
<path d="M44.0102 46.3801C44.0102 47.6001 45.0002 48.5801 46.2102 48.5801C47.4202 48.5801 48.4102 47.5901 48.4102 46.3801C48.4102 45.1701 47.4202 44.1801 46.2102 44.1801C45.0002 44.1801 44.0102 45.1701 44.0102 46.3801Z" fill="#BBB9BA"/>
<path d="M44.0102 31.6601C44.0102 32.8801 45.0002 33.8601 46.2102 33.8601C47.4202 33.8601 48.4102 32.8701 48.4102 31.6601C48.4102 30.4501 47.4202 29.4601 46.2102 29.4601C45.0002 29.4601 44.0102 30.4501 44.0102 31.6601Z" fill="#BBB9BA"/>
<path d="M46.2102 14.7301C44.9951 14.7301 44.0102 15.7151 44.0102 16.9301C44.0102 18.1452 44.9951 19.1301 46.2102 19.1301C47.4252 19.1301 48.4102 18.1452 48.4102 16.9301C48.4102 15.7151 47.4252 14.7301 46.2102 14.7301Z" fill="#BBB9BA"/>
<path d="M46.2102 0.000145151C44.9951 0.000145257 44.0102 0.985124 44.0102 2.20015C44.0102 3.41518 44.9951 4.40015 46.2102 4.40015C47.4252 4.40015 48.4102 3.41518 48.4102 2.20015C48.4102 0.985123 47.4252 0.000145045 46.2102 0.000145151Z" fill="#BBB9BA"/>
<path d="M28.6103 75.84C28.6103 77.06 29.6003 78.04 30.8103 78.04C32.0203 78.04 33.0103 77.05 33.0103 75.84C33.0103 74.63 32.0203 73.64 30.8103 73.64C29.6003 73.64 28.6103 74.63 28.6103 75.84Z" fill="#BBB9BA"/>
<path d="M28.6103 61.1101C28.6103 62.3301 29.6003 63.3101 30.8103 63.3101C32.0203 63.3101 33.0103 62.3201 33.0103 61.1101C33.0103 59.9001 32.0203 58.9101 30.8103 58.9101C29.6003 58.9101 28.6103 59.9001 28.6103 61.1101Z" fill="#BBB9BA"/>
<path d="M28.6103 46.3801C28.6103 47.6001 29.6003 48.5801 30.8103 48.5801C32.0203 48.5801 33.0103 47.5901 33.0103 46.3801C33.0103 45.1701 32.0203 44.1801 30.8103 44.1801C29.6003 44.1801 28.6103 45.1701 28.6103 46.3801Z" fill="#BBB9BA"/>
<path d="M28.6103 31.6601C28.6103 32.8801 29.6003 33.8601 30.8103 33.8601C32.0203 33.8601 33.0103 32.8701 33.0103 31.6601C33.0103 30.4501 32.0203 29.4601 30.8103 29.4601C29.6003 29.4601 28.6103 30.4501 28.6103 31.6601Z" fill="#BBB9BA"/>
<path d="M28.6103 16.9301C28.6103 18.1501 29.6003 19.1301 30.8103 19.1301C32.0203 19.1301 33.0103 18.1401 33.0103 16.9301C33.0103 15.7201 32.0203 14.7301 30.8103 14.7301C29.6003 14.7301 28.6103 15.7201 28.6103 16.9301Z" fill="#BBB9BA"/>
<path d="M28.6103 2.20015C28.6103 3.42015 29.6003 4.40015 30.8103 4.40015C32.0203 4.40015 33.0103 3.41015 33.0103 2.20015C33.0103 0.990149 32.0203 0.000145045 30.8103 0.000145151C29.6003 0.000145257 28.6103 0.99015 28.6103 2.20015Z" fill="#BBB9BA"/>
<path d="M15.4104 73.64C14.1953 73.64 13.2104 74.625 13.2104 75.84C13.2104 77.0551 14.1953 78.04 15.4104 78.04C16.6254 78.04 17.6104 77.0551 17.6104 75.84C17.6104 74.625 16.6254 73.64 15.4104 73.64Z" fill="#BBB9BA"/>
<path d="M15.4104 58.9101C14.1953 58.9101 13.2104 59.895 13.2104 61.1101C13.2104 62.3251 14.1953 63.3101 15.4104 63.3101C16.6254 63.3101 17.6104 62.3251 17.6104 61.1101C17.6104 59.895 16.6254 58.9101 15.4104 58.9101Z" fill="#BBB9BA"/>
<path d="M13.2104 46.3801C13.2104 47.6001 14.2004 48.5801 15.4104 48.5801C16.6204 48.5801 17.6104 47.5901 17.6104 46.3801C17.6104 45.1701 16.6204 44.1801 15.4104 44.1801C14.2004 44.1801 13.2104 45.1701 13.2104 46.3801Z" fill="#BBB9BA"/>
<path d="M13.2104 31.6601C13.2104 32.8801 14.2004 33.8601 15.4104 33.8601C16.6204 33.8601 17.6104 32.8701 17.6104 31.6601C17.6104 30.4501 16.6204 29.4601 15.4104 29.4601C14.2004 29.4601 13.2104 30.4501 13.2104 31.6601Z" fill="#BBB9BA"/>
<path d="M15.4104 14.7301C14.1953 14.7301 13.2104 15.7151 13.2104 16.9301C13.2104 18.1452 14.1953 19.1301 15.4104 19.1301C16.6254 19.1301 17.6104 18.1452 17.6104 16.9301C17.6104 15.7151 16.6254 14.7301 15.4104 14.7301Z" fill="#BBB9BA"/>
<path d="M15.4104 0.000145151C14.1953 0.000145257 13.2104 0.985124 13.2104 2.20015C13.2104 3.41518 14.1953 4.40015 15.4104 4.40015C16.6254 4.40015 17.6104 3.41518 17.6104 2.20015C17.6104 0.985123 16.6254 0.000145045 15.4104 0.000145151Z" fill="#BBB9BA"/>
<path d="M3.20002 73.64C1.985 73.64 1.00002 74.625 1.00002 75.84C1.00002 77.0551 1.985 78.04 3.20002 78.04C4.41505 78.04 5.40002 77.0551 5.40002 75.84C5.40002 74.625 4.41505 73.64 3.20002 73.64Z" fill="#BBB9BA"/>
<path d="M3.20002 58.9101C1.985 58.9101 1.00002 59.895 1.00002 61.1101C1.00002 62.3251 1.985 63.3101 3.20002 63.3101C4.41505 63.3101 5.40002 62.3251 5.40002 61.1101C5.40002 59.895 4.41505 58.9101 3.20002 58.9101Z" fill="#BBB9BA"/>
<path d="M1.00002 46.3801C1.00002 47.6001 1.99002 48.5801 3.20002 48.5801C4.41002 48.5801 5.40002 47.5901 5.40002 46.3801C5.40002 45.1701 4.41002 44.1801 3.20002 44.1801C1.99002 44.1801 1.00002 45.1701 1.00002 46.3801Z" fill="#BBB9BA"/>
<path d="M1.00002 31.6601C1.00002 32.8801 1.99002 33.8601 3.20002 33.8601C4.41002 33.8601 5.40002 32.8701 5.40002 31.6601C5.40002 30.4501 4.41002 29.4601 3.20002 29.4601C1.99002 29.4601 1.00002 30.4501 1.00002 31.6601Z" fill="#BBB9BA"/>
<path d="M3.20002 14.7301C1.985 14.7301 1.00002 15.7151 1.00002 16.9301C1.00002 18.1452 1.985 19.1301 3.20002 19.1301C4.41505 19.1301 5.40002 18.1452 5.40002 16.9301C5.40002 15.7151 4.41505 14.7301 3.20002 14.7301Z" fill="#BBB9BA"/>
<path d="M3.20002 -9.89898e-05C1.985 -9.88836e-05 1.00002 0.984879 1.00002 2.19991C1.00002 3.41493 1.985 4.3999 3.20002 4.3999C4.41505 4.3999 5.40002 3.41493 5.40002 2.19991C5.40002 0.984879 4.41505 -9.9096e-05 3.20002 -9.89898e-05Z" fill="#BBB9BA"/>
</g>
<defs>
<clipPath id="clip0_1_37">
<rect width="63.81" height="78.04" fill="white" transform="translate(63.8101 78.04) rotate(180)"/>
</clipPath>
</defs>
</svg>
