<svg width="60" height="60" viewBox="0 0 60 60" fill="none" xmlns="http://www.w3.org/2000/svg">
<mask id="mask0_1_221" style="mask-type:alpha" maskUnits="userSpaceOnUse" x="0" y="0" width="60" height="60">
<rect width="60" height="60" fill="#D9D9D9"/>
</mask>
<g mask="url(#mask0_1_221)">
<path d="M15.1409 29.2105C14.9823 29.2665 14.8154 29.2948 14.6474 29.2948C9.31924 29.2948 5 24.9757 5 19.6474C5 14.3192 9.31946 10 14.6474 10C19.9759 10 24.2948 14.3195 24.2948 19.6474C24.2948 19.7914 24.274 19.9346 24.2328 20.0726C23.7025 21.8469 22.4494 23.6565 20.5026 25.5385C18.5832 27.3939 16.8081 28.623 15.1407 29.2107L15.1409 29.2105ZM40.1175 43.0182L42.4142 45.3148C44.7036 47.6043 48.4153 47.6043 50.7046 45.3148C52.994 43.0253 52.994 39.3134 50.7046 37.0236L40.3147 26.6337C36.8659 23.1849 36.8659 17.5935 40.3147 14.145C43.7635 10.6962 49.3549 10.6962 52.8033 14.145L55.0297 16.3714C55.6095 16.9509 55.6095 17.8908 55.0297 18.4705C54.4502 19.05 53.5103 19.05 52.9308 18.4705L50.7042 16.2439C48.4147 13.9544 44.7031 13.9544 42.4138 16.2439C40.1245 18.5333 40.1243 22.2453 42.4138 24.535L52.8037 34.9249C56.2525 38.3734 56.2525 43.9652 52.8037 47.4136C49.3549 50.8621 43.7635 50.8621 40.315 47.4136L38.0184 45.117C36.9168 46.0582 35.2777 46.0702 34.1602 45.1121L17.9334 31.2036C19.4484 30.3849 20.9798 29.2067 22.5669 27.6728C24.1811 26.1123 25.4095 24.5569 26.2377 22.9715L40.1133 39.1595C41.0715 40.2771 41.0595 41.9162 40.1182 43.0178L40.1175 43.0182Z" fill="#FD6585"/>
</g>
</svg>
