<svg width="124" height="165" viewBox="0 0 124 165" fill="none" xmlns="http://www.w3.org/2000/svg">
<path d="M-5.82243 -33.4268L-116.421 77.1717C-119.85 80.6005 -119.85 86.1597 -116.421 89.5885L-5.82243 200.187C-2.39362 203.616 3.16556 203.616 6.59437 200.187L117.193 89.5885C120.622 86.1597 120.622 80.6005 117.193 77.1717L6.59437 -33.4268C3.16556 -36.8556 -2.39362 -36.8556 -5.82243 -33.4268Z" fill="url(#paint0_linear_1_668)"/>
<path d="M-4.79722 15.2857L-67.7156 78.2041C-70.5742 81.0627 -70.5742 85.6975 -67.7156 88.5561L-4.79722 151.475C-1.93858 154.333 2.69619 154.333 5.55483 151.475L68.4732 88.5562C71.3318 85.6975 71.3318 81.0627 68.4732 78.2041L5.55483 15.2857C2.69619 12.4271 -1.93858 12.4271 -4.79722 15.2857Z" fill="url(#paint1_linear_1_668)"/>
<path d="M0.380081 180.18C-1.62992 180.18 -3.51991 179.4 -4.93991 177.98L-94.2099 88.7001C-95.6299 87.2801 -96.4099 85.3901 -96.4099 83.3801C-96.4099 81.3701 -95.6299 79.4801 -94.2099 78.0601L-4.93991 -11.2099C-3.51991 -12.6299 -1.62992 -13.4099 0.380081 -13.4099C2.39008 -13.4099 4.28009 -12.6299 5.70009 -11.2099L94.9701 78.0601C96.3901 79.4801 97.1701 81.3701 97.1701 83.3801C97.1701 85.3901 96.3901 87.2801 94.9701 88.7001L94.6601 88.3901L94.9701 88.7001L5.70009 177.97C4.28009 179.39 2.39008 180.17 0.380081 180.17V180.18ZM0.380081 -12.5199C-1.38992 -12.5199 -3.05991 -11.8299 -4.30991 -10.5799L-93.5799 78.6901C-94.8299 79.9401 -95.5199 81.6101 -95.5199 83.3801C-95.5199 85.1501 -94.8299 86.8201 -93.5799 88.0701L-4.30991 177.34C-1.71991 179.93 2.4901 179.93 5.08009 177.34L94.3501 88.0701C95.6001 86.8201 96.2901 85.1501 96.2901 83.3801C96.2901 81.6101 95.6001 79.9401 94.3501 78.6901L5.07008 -10.5799C3.82008 -11.8299 2.15008 -12.5199 0.380081 -12.5199Z" fill="url(#paint2_linear_1_668)"/>
<path d="M-3.33356 34.6675L-48.3409 79.6749C-50.3872 81.7212 -50.3872 85.039 -48.3409 87.0854L-3.33356 132.093C-1.28721 134.139 2.03058 134.139 4.07693 132.093L49.0843 87.0854C51.1306 85.039 51.1306 81.7212 49.0843 79.6749L4.07693 34.6675C2.03058 32.6212 -1.28721 32.6212 -3.33356 34.6675Z" fill="url(#paint3_linear_1_668)"/>
<path d="M-1.86982 53.9221L-29.0864 81.1386C-30.3243 82.3766 -30.3243 84.3837 -29.0864 85.6217L-1.86982 112.838C-0.631853 114.076 1.37528 114.076 2.61324 112.838L29.8298 85.6217C31.0677 84.3837 31.0677 82.3766 29.8298 81.1386L2.61324 53.9221C1.37528 52.6841 -0.631853 52.6841 -1.86982 53.9221Z" fill="url(#paint4_linear_1_668)"/>
<defs>
<linearGradient id="paint0_linear_1_668" x1="93" y1="78.0002" x2="6.10579e-07" y2="74.5002" gradientUnits="userSpaceOnUse">
<stop stop-color="#DD1554"/>
<stop offset="1" stop-color="white" stop-opacity="0"/>
</linearGradient>
<linearGradient id="paint1_linear_1_668" x1="37.404" y1="121.778" x2="-35.8511" y2="48.5229" gradientUnits="userSpaceOnUse">
<stop stop-color="#E61053"/>
<stop offset="1" stop-color="white" stop-opacity="0"/>
</linearGradient>
<linearGradient id="paint2_linear_1_668" x1="-96.4199" y1="83.3801" x2="97.1801" y2="83.3801" gradientUnits="userSpaceOnUse">
<stop stop-color="white"/>
<stop offset="1" stop-color="white" stop-opacity="0"/>
</linearGradient>
<linearGradient id="paint3_linear_1_668" x1="27.0006" y1="111.375" x2="-25.4478" y2="58.9263" gradientUnits="userSpaceOnUse">
<stop stop-color="#C80945"/>
<stop offset="1" stop-color="#D80C4C"/>
</linearGradient>
<linearGradient id="paint4_linear_1_668" x1="16.6452" y1="101.019" x2="-15.0923" y2="69.2817" gradientUnits="userSpaceOnUse">
<stop stop-color="#C73B3B"/>
<stop offset="1" stop-color="#FC1E1E"/>
</linearGradient>
</defs>
</svg>
