<svg width="163" height="163" viewBox="0 0 163 163" fill="none" xmlns="http://www.w3.org/2000/svg">
<mask id="mask0_1_686" style="mask-type:alpha" maskUnits="userSpaceOnUse" x="0" y="0" width="163" height="163">
<g opacity="0.34" clip-path="url(#clip0_1_686)">
<path d="M77.2839 2.11736L2.1193 77.2819C-0.208529 79.6097 -0.208529 83.3839 2.1193 85.7117L77.2839 160.876C79.6117 163.204 83.3859 163.204 85.7137 160.876L160.878 85.7117C163.206 83.3839 163.206 79.6097 160.878 77.2819L85.7137 2.11735C83.3859 -0.210481 79.6117 -0.210474 77.2839 2.11736Z" stroke="url(#paint0_linear_1_686)" stroke-width="1.22" stroke-miterlimit="10"/>
<path d="M77.814 12.0767L12.083 77.8077C10.0456 79.8451 10.0456 83.1485 12.083 85.186L77.814 150.917C79.8514 152.954 83.1548 152.954 85.1923 150.917L150.923 85.186C152.961 83.1485 152.961 79.8451 150.923 77.8077L85.1923 12.0767C83.1548 10.0393 79.8514 10.0393 77.814 12.0767Z" stroke="url(#paint1_linear_1_686)" stroke-width="1.06" stroke-miterlimit="10"/>
<path d="M78.3441 22.0361L22.0424 78.3378C20.2977 80.0825 20.2977 82.9112 22.0424 84.6558L78.3441 140.958C80.0888 142.702 82.9175 142.702 84.6621 140.958L140.964 84.6558C142.709 82.9112 142.709 80.0825 140.964 78.3378L84.6621 22.0361C82.9175 20.2914 80.0888 20.2914 78.3441 22.0361Z" stroke="url(#paint2_linear_1_686)" stroke-width="0.91" stroke-miterlimit="10"/>
<path d="M78.8742 31.9955L32.0018 78.8679C30.5499 80.3198 30.5499 82.6738 32.0018 84.1257L78.8742 130.998C80.3261 132.45 82.6801 132.45 84.132 130.998L131.004 84.1257C132.456 82.6738 132.456 80.3198 131.004 78.8679L84.132 31.9955C82.6801 30.5436 80.3261 30.5436 78.8742 31.9955Z" stroke="url(#paint3_linear_1_686)" stroke-width="0.76" stroke-miterlimit="10"/>
<path d="M79.4087 41.9505L41.9611 79.3981C40.802 80.5572 40.802 82.4365 41.9611 83.5956L79.4087 121.043C80.5678 122.202 82.4471 122.202 83.6062 121.043L121.054 83.5956C122.213 82.4365 122.213 80.5572 121.054 79.3981L83.6062 41.9505C82.4471 40.7914 80.5678 40.7914 79.4087 41.9505Z" stroke="url(#paint4_linear_1_686)" stroke-width="0.61" stroke-miterlimit="10"/>
<path d="M79.9258 51.9142L51.9161 79.9238C51.0474 80.7926 51.0474 82.2011 51.9161 83.0698L79.9258 111.079C80.7945 111.948 82.203 111.948 83.0718 111.079L111.081 83.0698C111.95 82.2011 111.95 80.7926 111.081 79.9238L83.0718 51.9142C82.203 51.0455 80.7945 51.0455 79.9258 51.9142Z" stroke="url(#paint5_linear_1_686)" stroke-width="0.45" stroke-miterlimit="10"/>
<path d="M80.4559 61.8736L61.8755 80.454C61.2995 81.0299 61.2995 81.9637 61.8755 82.5397L80.4559 101.12C81.0319 101.696 81.9657 101.696 82.5416 101.12L101.122 82.5397C101.698 81.9637 101.698 81.0299 101.122 80.454L82.5416 61.8736C81.9657 61.2976 81.0319 61.2976 80.4559 61.8736Z" stroke="url(#paint6_linear_1_686)" stroke-width="0.3" stroke-miterlimit="10"/>
</g>
</mask>
<g mask="url(#mask0_1_686)">
<rect x="-9" y="-7" width="194" height="92" fill="white"/>
</g>
<defs>
<linearGradient id="paint0_linear_1_686" x1="0.00315591" y1="81.4981" x2="163.003" y2="81.4981" gradientUnits="userSpaceOnUse">
<stop stop-color="white"/>
<stop offset="1" stop-color="white" stop-opacity="0"/>
</linearGradient>
<linearGradient id="paint1_linear_1_686" x1="10.2287" y1="81.4981" x2="152.778" y2="81.4981" gradientUnits="userSpaceOnUse">
<stop stop-color="white" stop-opacity="0.83"/>
<stop offset="1" stop-color="white" stop-opacity="0.17"/>
</linearGradient>
<linearGradient id="paint2_linear_1_686" x1="20.4542" y1="81.4981" x2="142.552" y2="81.4981" gradientUnits="userSpaceOnUse">
<stop stop-color="white" stop-opacity="0.67"/>
<stop offset="1" stop-color="white" stop-opacity="0.33"/>
</linearGradient>
<linearGradient id="paint3_linear_1_686" x1="30.6797" y1="81.4981" x2="132.327" y2="81.4981" gradientUnits="userSpaceOnUse">
<stop stop-color="white" stop-opacity="0.5"/>
<stop offset="1" stop-color="white" stop-opacity="0.5"/>
</linearGradient>
<linearGradient id="paint4_linear_1_686" x1="40.9052" y1="81.4981" x2="122.101" y2="81.4981" gradientUnits="userSpaceOnUse">
<stop stop-color="white" stop-opacity="0.33"/>
<stop offset="1" stop-color="white" stop-opacity="0.67"/>
</linearGradient>
<linearGradient id="paint5_linear_1_686" x1="51.1308" y1="81.4981" x2="111.876" y2="81.4981" gradientUnits="userSpaceOnUse">
<stop stop-color="white" stop-opacity="0.17"/>
<stop offset="1" stop-color="white" stop-opacity="0.83"/>
</linearGradient>
<linearGradient id="paint6_linear_1_686" x1="61.3563" y1="81.4981" x2="101.65" y2="81.4981" gradientUnits="userSpaceOnUse">
<stop stop-color="white" stop-opacity="0"/>
<stop offset="1" stop-color="white"/>
</linearGradient>
<clipPath id="clip0_1_686">
<rect width="163" height="163" fill="white"/>
</clipPath>
</defs>
</svg>
