<svg width="24" height="24" fill="none" xmlns="http://www.w3.org/2000/svg">
<symbol viewBox="0 0 24 24" id="view-in-ar">
<mask id="mask0_1_288" style="mask-type:alpha" maskUnits="userSpaceOnUse" x="0" y="0" width="24" height="24">
<rect width="24" height="24" fill="#D9D9D9"/>
</mask>
<g mask="url(#mask0_1_288)">
<path d="M11 19.55L6 16.675C5.68333 16.4917 5.43767 16.246 5.263 15.938C5.08767 15.6293 5 15.2917 5 14.925V9.2C5 8.83333 5.08767 8.49567 5.263 8.187C5.43767 7.879 5.68333 7.63333 6 7.45L11 4.575C11.3167 4.39167 11.65 4.3 12 4.3C12.35 4.3 12.6833 4.39167 13 4.575L18 7.45C18.3167 7.63333 18.5627 7.879 18.738 8.187C18.9127 8.49567 19 8.83333 19 9.2V14.925C19 15.2917 18.9127 15.6293 18.738 15.938C18.5627 16.246 18.3167 16.4917 18 16.675L13 19.55C12.6833 19.7333 12.35 19.825 12 19.825C11.65 19.825 11.3167 19.7333 11 19.55ZM11 17.25V12.65L7 10.35V14.95L11 17.25ZM13 17.25L17 14.95V10.35L13 12.65V17.25ZM1 6V4C1 3.16667 1.29167 2.45833 1.875 1.875C2.45833 1.29167 3.16667 1 4 1H6V3H4C3.71667 3 3.47933 3.09567 3.288 3.287C3.096 3.479 3 3.71667 3 4V6H1ZM4 23C3.16667 23 2.45833 22.7083 1.875 22.125C1.29167 21.5417 1 20.8333 1 20V18H3V20C3 20.2833 3.096 20.5207 3.288 20.712C3.47933 20.904 3.71667 21 4 21H6V23H4ZM18 23V21H20C20.2833 21 20.5207 20.904 20.712 20.712C20.904 20.5207 21 20.2833 21 20V18H23V20C23 20.8333 22.7083 21.5417 22.125 22.125C21.5417 22.7083 20.8333 23 20 23H18ZM21 6V4C21 3.71667 20.904 3.479 20.712 3.287C20.5207 3.09567 20.2833 3 20 3H18V1H20C20.8333 1 21.5417 1.29167 22.125 1.875C22.7083 2.45833 23 3.16667 23 4V6H21ZM12 10.9L16 8.6L12 6.3L8 8.6L12 10.9Z" fill="white"/>
</g>
</symbol>
</svg>
